<svg xmlns="http://www.w3.org/2000/svg" xmlns:xlink="http://www.w3.org/1999/xlink" width="151" height="151" viewBox="0 0 151 151">
  <defs>
    <clipPath id="clip-path">
      <rect id="Rectangle_6" data-name="Rectangle 6" width="151" height="151" transform="translate(1634 3526)" fill="#6db440" stroke="#707070" stroke-width="1"/>
    </clipPath>
  </defs>
  <g id="Mask_Group_7" data-name="Mask Group 7" transform="translate(-1634 -3526)" clip-path="url(#clip-path)">
    <path id="running-solid" d="M80.222,28.314A14.157,14.157,0,1,0,66.065,14.157,14.157,14.157,0,0,0,80.222,28.314ZM33.531,93.632l-4.365,10.181H9.438a9.438,9.438,0,1,0,0,18.876H32.28a14.127,14.127,0,0,0,13.01-8.58l2.592-6.052L44.735,106.2a28.085,28.085,0,0,1-11.2-12.567Zm79.723-27.57H100.269L92.583,50.357A28.3,28.3,0,0,0,74.362,35.333L53.4,29.1a28.194,28.194,0,0,0-23.842,5.055l-11.7,8.969A9.437,9.437,0,1,0,29.34,58.1L41.046,49.13A9.184,9.184,0,0,1,48.5,47.319l4.336,1.289L41.786,74.382a18.925,18.925,0,0,0,7.757,23.686l25.063,14.8L66.5,138.74a9.437,9.437,0,1,0,18.012,5.639l9.332-29.806a14.216,14.216,0,0,0-6.382-16.041L69.4,87.872l9.234-23.087L84.616,77a14.244,14.244,0,0,0,12.715,7.931h15.923a9.436,9.436,0,1,0,0-18.873Z" transform="translate(1648.154 3526)" fill="#6db440"/>
  </g>
</svg>
