<svg xmlns="http://www.w3.org/2000/svg" xmlns:xlink="http://www.w3.org/1999/xlink" width="151" height="151" viewBox="0 0 151 151">
  <defs>
    <clipPath id="clip-path">
      <rect id="Rectangle_2" data-name="Rectangle 2" width="151" height="151" transform="translate(1104 3180)" fill="#6db440" stroke="#707070" stroke-width="1"/>
    </clipPath>
  </defs>
  <g id="Mask_Group_3" data-name="Mask Group 3" transform="translate(-1104 -3180)" clip-path="url(#clip-path)">
    <path id="baseball-ball-solid" d="M112.184,111.332l8.768-4.232a66.3,66.3,0,0,0,13.426,18.54,75.343,75.343,0,0,0,.091-94.223A65.45,65.45,0,0,0,121.2,49.532l-8.737-4.293a75.075,75.075,0,0,1,15.465-21.006A75.292,75.292,0,0,0,23.107,24.2,75.29,75.29,0,0,1,38.542,45.148L29.8,49.441A65.654,65.654,0,0,0,16.561,31.357a75.289,75.289,0,0,0,0,94.223,65.607,65.607,0,0,0,13.486-18.571l8.768,4.232a75.117,75.117,0,0,1-15.678,21.524,75.258,75.258,0,0,0,104.7.061A75.456,75.456,0,0,1,112.184,111.332Zm-69.5-9.742L33.4,98.607a66.094,66.094,0,0,0-.183-40.794l9.255-3.044a75.966,75.966,0,0,1,.213,46.822Zm65.849-46.7,9.255,3.044a66.311,66.311,0,0,0-.183,40.794l-9.285,2.983a75.959,75.959,0,0,1,.213-46.822Z" transform="translate(1104.015 3177.016)" fill="#6db440"/>
  </g>
</svg>
