<svg xmlns="http://www.w3.org/2000/svg" xmlns:xlink="http://www.w3.org/1999/xlink" width="30" height="30" viewBox="0 0 30 30">
  <defs>
    <clipPath id="clip-path">
      <rect id="Rectangle_22" data-name="Rectangle 22" width="30" height="30" transform="translate(1616 6951)" fill="#6db440" stroke="#707070" stroke-width="1"/>
    </clipPath>
  </defs>
  <g id="Mask_Group_8" data-name="Mask Group 8" transform="translate(-1616 -6951)" clip-path="url(#clip-path)">
    <path id="facebook-square-brands" d="M26.339,4.214H3.161A3.161,3.161,0,0,0,0,7.375V30.554a3.161,3.161,0,0,0,3.161,3.161H12.2V23.685H8.05V18.964H12.2v-3.6c0-4.092,2.436-6.353,6.168-6.353a25.132,25.132,0,0,1,3.656.319v4.017H19.963A2.36,2.36,0,0,0,17.3,15.9v3.065h4.529l-.724,4.721H17.3V33.714h9.038A3.161,3.161,0,0,0,29.5,30.554V7.375a3.161,3.161,0,0,0-3.161-3.161Z" transform="translate(1616 6946.786)" fill="#6db440"/>
  </g>
</svg>
