<svg xmlns="http://www.w3.org/2000/svg" xmlns:xlink="http://www.w3.org/1999/xlink" width="151" height="151" viewBox="0 0 151 151">
  <defs>
    <clipPath id="clip-path">
      <rect id="Rectangle_2" data-name="Rectangle 2" width="151" height="151" transform="translate(78 3180)" fill="#6db440" stroke="#707070" stroke-width="1"/>
    </clipPath>
  </defs>
  <g id="Mask_Group_1" data-name="Mask Group 1" transform="translate(-78 -3180)" clip-path="url(#clip-path)">
    <path id="futbol-solid" d="M153.984,78.484a75.5,75.5,0,1,1-75.5-75.5A75.5,75.5,0,0,1,153.984,78.484Zm-14.613,0V78.4l-7.935,6.923L112.354,67.512l5.009-25.681,10.443.935A61.015,61.015,0,0,0,97.146,20.5l4.156,9.723L78.484,42.865,55.666,30.223,59.821,20.5A61.022,61.022,0,0,0,29.162,42.767l10.523-.936,4.929,25.681L25.533,85.321,17.6,78.4v.086A60.432,60.432,0,0,0,29.309,114.4l2.345-10.319,25.919,3.18,11.051,23.693-9.1,5.415a61.445,61.445,0,0,0,37.924,0l-9.1-5.415,11.051-23.693,25.919-3.18,2.345,10.319A60.431,60.431,0,0,0,139.371,78.484ZM63.84,99.664l-9.1-27.8L78.484,54.656l23.745,17.209-9.018,27.8Z" transform="translate(75.016 3177.016)" fill="#6db440"/>
  </g>
</svg>
