<svg xmlns="http://www.w3.org/2000/svg" xmlns:xlink="http://www.w3.org/1999/xlink" width="151" height="151" viewBox="0 0 151 151">
  <defs>
    <clipPath id="clip-path">
      <rect id="Rectangle_5" data-name="Rectangle 5" width="151" height="151" transform="translate(1104 3526)" fill="#6db440" stroke="#707070" stroke-width="1"/>
    </clipPath>
  </defs>
  <g id="Mask_Group_6" data-name="Mask Group 6" transform="translate(-1104 -3526)" clip-path="url(#clip-path)">
    <path id="dumbbell-solid" d="M24.538,22.65H13.213A5.649,5.649,0,0,0,7.55,28.313V52.85H1.888A1.893,1.893,0,0,0,0,54.738V66.063A1.893,1.893,0,0,0,1.888,67.95H7.55V92.488a5.649,5.649,0,0,0,5.663,5.662H24.538A5.649,5.649,0,0,0,30.2,92.488V28.313A5.649,5.649,0,0,0,24.538,22.65Zm124.575,30.2H143.45V28.313a5.649,5.649,0,0,0-5.662-5.662H126.463a5.649,5.649,0,0,0-5.662,5.662V92.488a5.649,5.649,0,0,0,5.662,5.662h11.325a5.649,5.649,0,0,0,5.662-5.662V67.95h5.663A1.893,1.893,0,0,0,151,66.063V54.738A1.893,1.893,0,0,0,149.113,52.85ZM107.588,7.55H96.263A5.649,5.649,0,0,0,90.6,13.213V52.85H60.4V13.213A5.649,5.649,0,0,0,54.738,7.55H43.413a5.649,5.649,0,0,0-5.663,5.663v94.375a5.649,5.649,0,0,0,5.663,5.662H54.738a5.649,5.649,0,0,0,5.662-5.662V67.95H90.6v39.637a5.649,5.649,0,0,0,5.662,5.662h11.325a5.649,5.649,0,0,0,5.662-5.662V13.213A5.649,5.649,0,0,0,107.588,7.55Z" transform="translate(1104 3541.1)" fill="#6db440"/>
  </g>
</svg>
