<svg xmlns="http://www.w3.org/2000/svg" xmlns:xlink="http://www.w3.org/1999/xlink" width="205" height="205" viewBox="0 0 205 205">
  <defs>
    <clipPath id="clip-path">
      <rect id="Rectangle_36" data-name="Rectangle 36" width="205" height="205" transform="translate(1569 4423)" fill="#fff" stroke="#707070" stroke-width="1"/>
    </clipPath>
  </defs>
  <g id="Mask_Group_17" data-name="Mask Group 17" transform="translate(-1569 -4423)" clip-path="url(#clip-path)">
    <path id="instagram-square-brands" d="M102.348,95.048a24.372,24.372,0,1,0,24.381,24.375,24.372,24.372,0,0,0-24.381-24.375ZM159.33,76.315A24.673,24.673,0,0,0,145.435,62.42c-9.6-3.788-32.441-2.938-43.087-2.938S68.88,58.6,59.257,62.42A24.673,24.673,0,0,0,45.362,76.315c-3.783,9.6-2.938,32.464-2.938,43.1s-.845,33.478,2.956,43.105a24.673,24.673,0,0,0,13.895,13.895c9.6,3.788,32.441,2.938,43.091,2.938s33.464.882,43.087-2.938a24.673,24.673,0,0,0,13.895-13.895c3.815-9.6,2.938-32.464,2.938-43.1s.877-33.473-2.938-43.1Zm-56.982,80.572a37.421,37.421,0,1,1,26.506-10.96,37.467,37.467,0,0,1-26.506,10.96Zm39.011-67.76a3.628,3.628,0,1,1,.018.018Zm41.405-72.055H21.932A21.932,21.932,0,0,0,0,39V199.837a21.932,21.932,0,0,0,21.932,21.932H182.765A21.932,21.932,0,0,0,204.7,199.837V39a21.932,21.932,0,0,0-21.932-21.932Zm-7.822,132.5c-.589,11.711-3.262,22.087-11.811,30.613S144.215,191.443,132.518,192c-12.067.681-48.245.681-60.312,0-11.711-.589-22.051-3.267-30.613-11.811s-11.254-18.925-11.811-30.613c-.681-12.072-.681-48.255,0-60.313.589-11.711,3.23-22.087,11.811-30.613S60.541,47.429,72.206,46.871c12.067-.681,48.245-.681,60.312,0,11.711.589,22.083,3.267,30.613,11.811s11.254,18.925,11.811,30.636C175.624,101.344,175.624,137.5,174.943,149.576Z" transform="translate(1569 4405.929)" fill="#fff"/>
  </g>
</svg>
