<svg xmlns="http://www.w3.org/2000/svg" xmlns:xlink="http://www.w3.org/1999/xlink" width="30" height="30" viewBox="0 0 30 30">
  <defs>
    <clipPath id="clip-path">
      <rect id="Rectangle_21" data-name="Rectangle 21" width="30" height="30" transform="translate(1705 6951)" fill="#6db440" stroke="#707070" stroke-width="1"/>
    </clipPath>
  </defs>
  <g id="Mask_Group_9" data-name="Mask Group 9" transform="translate(-1705 -6951)" clip-path="url(#clip-path)">
    <path id="instagram-square-brands" d="M15,15.642a3.572,3.572,0,1,0,3.573,3.572A3.572,3.572,0,0,0,15,15.642ZM23.351,12.9a3.616,3.616,0,0,0-2.036-2.036c-1.406-.555-4.754-.431-6.315-.431s-4.905-.129-6.315.431A3.616,3.616,0,0,0,6.648,12.9c-.554,1.406-.431,4.758-.431,6.317s-.124,4.906.433,6.317a3.616,3.616,0,0,0,2.036,2.036C10.094,28.123,13.442,28,15,28s4.9.129,6.315-.431a3.616,3.616,0,0,0,2.036-2.036c.559-1.406.431-4.758.431-6.317s.129-4.906-.431-6.317ZM15,24.705A5.484,5.484,0,1,1,18.885,23.1,5.491,5.491,0,0,1,15,24.705Zm5.717-9.931a1.274,1.274,0,1,1,.908-.374,1.282,1.282,0,0,1-.908.374Zm6.068-10.56H3.214A3.214,3.214,0,0,0,0,7.429V31a3.214,3.214,0,0,0,3.214,3.214H26.786A3.214,3.214,0,0,0,30,31V7.429a3.214,3.214,0,0,0-3.214-3.214Zm-1.146,19.42a6.371,6.371,0,0,1-1.731,4.487,6.375,6.375,0,0,1-4.487,1.731c-1.769.1-7.071.1-8.839,0A6.383,6.383,0,0,1,6.1,28.121a6.352,6.352,0,0,1-1.731-4.487c-.1-1.769-.1-7.072,0-8.839A6.351,6.351,0,0,1,6.1,10.308a6.386,6.386,0,0,1,4.487-1.726c1.769-.1,7.071-.1,8.839,0a6.375,6.375,0,0,1,4.487,1.731,6.375,6.375,0,0,1,1.731,4.49C25.739,16.565,25.739,21.863,25.639,23.634Z" transform="translate(1705 6946.786)" fill="#6db440"/>
  </g>
</svg>
