<svg xmlns="http://www.w3.org/2000/svg" xmlns:xlink="http://www.w3.org/1999/xlink" width="59" height="59" viewBox="0 0 59 59">
  <defs>
    <clipPath id="clip-path">
      <rect id="Rectangle_21" data-name="Rectangle 21" width="59" height="59" transform="translate(1705 6951)" fill="#6db440" stroke="#707070" stroke-width="1"/>
    </clipPath>
  </defs>
  <g id="Mask_Group_9" data-name="Mask Group 9" transform="translate(-1705 -6951)" clip-path="url(#clip-path)">
    <path id="instagram-square-brands" d="M29.5,26.69a7.025,7.025,0,1,0,7.027,7.026A7.025,7.025,0,0,0,29.5,26.69Zm16.424-5.4a7.112,7.112,0,0,0-4-4c-2.766-1.092-9.35-.847-12.419-.847s-9.647-.254-12.42.847a7.112,7.112,0,0,0-4,4c-1.09,2.766-.847,9.357-.847,12.423s-.244,9.649.852,12.424a7.112,7.112,0,0,0,4,4c2.766,1.092,9.35.847,12.42.847s9.645.254,12.419-.847a7.112,7.112,0,0,0,4-4c1.1-2.766.847-9.357.847-12.423s.253-9.648-.847-12.423ZM29.5,44.513a10.786,10.786,0,1,1,7.64-3.159,10.8,10.8,0,0,1-7.64,3.159ZM40.744,24.983a1.045,1.045,0,1,1,.005.005ZM52.679,4.214H6.321A6.321,6.321,0,0,0,0,10.536V56.893a6.321,6.321,0,0,0,6.321,6.321H52.679A6.321,6.321,0,0,0,59,56.893V10.536a6.321,6.321,0,0,0-6.321-6.321ZM50.424,42.406c-.17,3.375-.94,6.366-3.4,8.824s-5.452,3.244-8.824,3.4c-3.478.2-13.906.2-17.384,0-3.375-.17-6.356-.942-8.824-3.4s-3.244-5.455-3.4-8.824c-.2-3.479-.2-13.908,0-17.384.17-3.375.931-6.366,3.4-8.824s5.461-3.234,8.824-3.4c3.478-.2,13.906-.2,17.384,0,3.375.17,6.365.942,8.824,3.4s3.244,5.455,3.4,8.83C50.62,28.5,50.62,38.924,50.424,42.406Z" transform="translate(1705 6946.786)" fill="#6db440"/>
  </g>
</svg>
