<svg xmlns="http://www.w3.org/2000/svg" xmlns:xlink="http://www.w3.org/1999/xlink" width="151" height="151" viewBox="0 0 151 151">
  <defs>
    <clipPath id="clip-path">
      <rect id="Rectangle_2" data-name="Rectangle 2" width="151" height="151" transform="translate(591 3180)" fill="#6db440" stroke="#707070" stroke-width="1"/>
    </clipPath>
  </defs>
  <g id="Mask_Group_2" data-name="Mask Group 2" transform="translate(-591 -3180)" clip-path="url(#clip-path)">
    <path id="volleyball-ball-solid" d="M70.98,74.66a86.92,86.92,0,0,0-6.91-32.174C36.432,55.393,16.13,79.744,9.19,108.478a75.792,75.792,0,0,0,17.32,24.686A101.625,101.625,0,0,1,70.98,74.66ZM59.748,33.751a86.516,86.516,0,0,0-17.472-21.52A75.3,75.3,0,0,0,4.228,92.041a110.176,110.176,0,0,1,55.52-58.29ZM116.851,84c2.618-30.378-8.31-60.116-29.678-80.48a73.55,73.55,0,0,0-30.1,2.587A101.625,101.625,0,0,1,85.53,73.905,86.75,86.75,0,0,0,116.851,84ZM78.894,86.9A87.155,87.155,0,0,0,54.483,109c24.96,17.441,56.159,22.859,84.467,14.55A75.229,75.229,0,0,0,151.795,96.18a102.3,102.3,0,0,1-24.625,3.166A102.06,102.06,0,0,1,78.894,86.9ZM48.973,117.244A86.578,86.578,0,0,0,39.2,142.873a75.2,75.2,0,0,0,87.968-6.727c-34.365,4.9-61.882-7.549-78.2-18.9ZM103.854,7.482a109.881,109.881,0,0,1,22.707,77.192,87.234,87.234,0,0,0,27.3-4.322c0-.609.091-1.218.091-1.826a75.431,75.431,0,0,0-50.1-71.044Z" transform="translate(588.03 3177.016)" fill="#6db440"/>
  </g>
</svg>
